<?xml version="1.0" standalone="no"?>
<!DOCTYPE svg PUBLIC "-//W3C//DTD SVG 20010904//EN"
 "http://www.w3.org/TR/2001/REC-SVG-20010904/DTD/svg10.dtd">
<svg version="1.0" xmlns="http://www.w3.org/2000/svg"
 width="615.000000pt" height="1280.000000pt" viewBox="0 0 615.000000 1280.000000"
 preserveAspectRatio="xMidYMid meet">
<metadata>
Created by potrace 1.15, written by Peter Selinger 2001-2017
</metadata>
<rect width="10000%" height="10000%" fill="#ffffff"/>
<g transform="translate(0.000000,1280.000000) scale(0.100000,-0.100000)"
fill="#000000" stroke="none">
<path d="M908 12618 c-29 -10 -64 -30 -79 -44 -16 -15 -41 -27 -61 -29 -18 -2
-35 -3 -38 -4 -18 -4 -95 -86 -132 -141 -97 -142 -109 -187 -109 -399 1 -149
1 -154 28 -200 16 -25 37 -64 48 -86 19 -37 37 -57 91 -103 22 -18 32 -54 22
-82 -20 -57 -26 -95 -17 -106 5 -7 11 -23 13 -36 3 -32 24 -79 43 -100 9 -10
13 -18 8 -18 -4 0 8 -15 28 -34 l36 -34 -10 -58 c-6 -33 -12 -79 -14 -104 -1
-25 -10 -59 -19 -77 -16 -31 -16 -32 9 -57 16 -16 25 -36 25 -56 0 -17 8 -43
17 -57 10 -15 16 -37 15 -51 -2 -13 4 -32 14 -43 12 -14 15 -30 12 -64 -3 -25
-2 -45 2 -45 8 0 4 -131 -5 -170 -4 -14 -18 -37 -33 -52 -14 -16 -22 -28 -18
-28 4 0 1 -12 -7 -27 -38 -74 -77 -163 -77 -177 0 -8 -4 -18 -10 -21 -6 -3
-10 -16 -10 -28 0 -12 -7 -35 -15 -51 -8 -16 -27 -52 -41 -80 -15 -28 -31 -59
-36 -70 -5 -10 -12 -30 -15 -45 -2 -14 -10 -33 -18 -41 -7 -8 -20 -36 -28 -61
-9 -25 -25 -65 -36 -90 -11 -24 -39 -93 -62 -154 -22 -60 -45 -117 -50 -125
-5 -8 -13 -25 -18 -37 -6 -11 -15 -24 -20 -28 -6 -3 -11 -14 -11 -24 0 -10 -7
-24 -15 -31 -30 -25 -90 -248 -104 -390 -12 -113 -30 -226 -54 -330 -9 -36
-18 -119 -22 -185 -3 -66 -10 -167 -15 -225 -6 -58 -12 -300 -13 -538 -4 -486
-1 -519 64 -837 22 -110 43 -213 45 -230 3 -16 17 -68 31 -115 14 -47 31 -107
39 -135 14 -49 27 -82 45 -117 5 -10 9 -26 9 -35 0 -10 7 -31 15 -47 8 -16 16
-43 16 -60 2 -75 -15 -244 -26 -271 -17 -39 -45 -155 -45 -186 0 -13 -1 -69
-2 -124 -3 -91 0 -140 18 -259 4 -23 8 -53 9 -68 2 -14 8 -41 13 -60 6 -18 14
-58 17 -88 12 -91 63 -302 78 -316 4 -4 7 -17 7 -29 0 -11 11 -43 24 -71 13
-27 29 -69 36 -94 6 -25 18 -63 25 -85 7 -22 16 -58 20 -80 8 -48 33 -133 46
-157 5 -10 9 -29 9 -43 0 -13 11 -48 24 -77 34 -74 45 -114 51 -182 3 -32 10
-67 16 -78 6 -10 9 -26 8 -36 -3 -18 7 -83 21 -142 5 -19 13 -60 20 -90 20
-97 32 -144 45 -175 7 -16 22 -82 34 -145 12 -63 26 -124 30 -135 36 -89 58
-180 67 -275 9 -101 11 -112 19 -155 9 -52 42 -172 50 -184 3 -5 12 -52 21
-103 8 -51 25 -118 36 -148 30 -84 49 -196 47 -285 -1 -44 2 -106 6 -138 8
-59 -10 -213 -26 -223 -4 -2 -5 -12 -2 -21 4 -11 3 -14 -5 -9 -7 4 -12 3 -12
-3 0 -6 -7 -8 -15 -5 -11 5 -13 2 -9 -10 4 -12 0 -16 -15 -16 -22 0 -28 -19
-10 -37 16 -16 -51 -53 -97 -53 -49 -1 -75 -19 -67 -48 3 -15 1 -22 -9 -22 -7
0 -20 -9 -28 -21 -8 -12 -25 -25 -38 -30 -12 -5 -22 -14 -22 -21 0 -7 -14 -21
-30 -30 -17 -10 -32 -23 -34 -30 -29 -103 -39 -213 -24 -243 22 -43 72 -85
100 -85 15 0 28 -4 28 -8 0 -11 111 -2 126 9 7 6 20 1 34 -11 28 -25 110 -27
163 -5 20 8 49 15 64 15 15 0 36 6 45 13 13 10 33 11 85 4 37 -5 83 -9 101
-10 19 0 32 -6 32 -13 0 -20 51 -43 104 -46 25 -2 46 -7 46 -13 0 -5 4 -4 9 4
7 11 13 12 23 4 7 -6 37 -13 66 -16 29 -3 58 -10 65 -14 6 -4 31 -8 54 -9 24
-1 50 -7 58 -14 9 -8 53 -14 108 -16 62 -2 118 -12 172 -29 119 -37 436 -117
467 -118 15 0 25 -4 23 -8 -3 -4 5 -7 18 -7 54 -1 172 -43 193 -68 6 -8 21
-14 33 -14 14 0 20 -4 15 -12 -5 -7 0 -9 14 -6 16 5 19 2 14 -11 -5 -14 -3
-14 10 -3 14 11 17 10 20 -4 1 -9 23 -24 48 -34 31 -12 44 -23 42 -34 -2 -11
5 -16 20 -17 89 -3 93 -4 97 -24 7 -37 83 -96 96 -75 3 5 14 10 24 10 10 0 21
8 24 19 3 14 11 17 30 14 16 -3 29 1 38 14 8 10 21 18 29 18 8 0 16 10 18 22
5 32 16 28 30 -10 20 -50 152 -126 152 -87 0 6 9 19 20 30 23 23 31 70 20 111
-14 46 7 63 66 54 27 -4 62 -14 78 -22 23 -12 34 -13 48 -4 29 18 51 13 91
-24 33 -30 67 -38 67 -15 0 4 18 19 40 34 33 22 44 25 61 15 12 -6 52 -13 91
-15 61 -4 72 -2 88 16 18 21 44 98 55 163 7 44 26 48 50 10 10 -16 28 -39 40
-53 12 -14 26 -38 29 -54 16 -68 55 -95 146 -101 22 -2 25 -6 26 -50 2 -70 20
-81 147 -90 57 -3 128 -5 157 -4 54 3 54 3 61 -30 8 -41 23 -51 71 -51 25 0
52 10 81 29 53 37 79 35 92 -7 14 -41 12 -40 70 -44 51 -3 100 14 158 54 35
25 71 99 62 128 -12 38 -13 95 -2 102 6 4 33 -5 60 -20 42 -23 51 -24 69 -13
19 12 23 11 34 -4 12 -16 13 -16 14 1 1 11 3 51 6 91 6 74 6 74 -52 198 -12
28 -32 75 -44 105 -12 30 -40 75 -64 100 -23 25 -49 55 -57 66 -8 12 -33 49
-57 83 -51 73 -74 149 -137 461 -9 41 -25 116 -36 165 -15 61 -21 123 -21 193
0 67 -4 111 -13 128 -11 22 -11 33 2 70 13 40 13 48 -2 89 -13 31 -15 56 -10
82 7 36 16 392 12 478 -1 22 -1 128 0 235 2 190 2 197 33 290 27 80 33 114 36
215 2 75 11 148 23 195 11 41 25 108 32 148 7 39 16 72 21 72 4 0 8 24 8 53 0
31 7 69 17 88 9 19 19 61 21 94 3 33 11 69 18 80 7 11 18 61 24 110 6 50 25
146 42 215 17 69 32 154 34 190 4 76 13 131 25 145 9 12 25 73 39 145 11 58
34 144 53 197 9 23 19 63 23 90 4 26 15 64 25 83 11 19 19 42 19 52 0 9 11 52
25 95 14 43 25 92 25 109 0 18 7 45 15 60 8 16 15 36 15 44 0 8 11 42 25 75
13 33 25 70 25 83 0 12 6 33 14 45 29 46 94 267 115 387 12 69 26 152 33 185
51 269 62 429 73 1070 4 248 2 314 -16 460 -31 264 -49 395 -64 460 -28 116
-45 201 -60 298 -26 169 -65 285 -132 397 -18 30 -33 58 -33 62 0 4 -22 38
-50 76 -27 38 -50 71 -50 74 0 7 -95 148 -144 213 -179 239 -233 296 -366 386
-143 96 -288 177 -364 203 -26 9 -127 23 -224 32 -97 9 -217 20 -267 26 -49 5
-148 11 -220 12 -104 2 -131 6 -133 17 -1 8 11 53 28 99 16 47 30 95 30 107 0
12 7 28 15 37 8 8 15 21 15 28 0 20 46 136 66 166 11 17 14 34 9 56 -4 17 -8
54 -8 83 -1 33 -8 60 -19 73 -24 27 -23 30 8 30 23 0 25 3 19 30 -4 19 -3 30
4 30 6 0 11 9 11 20 0 11 -4 20 -10 20 -5 0 -10 7 -10 15 0 8 6 15 14 15 8 0
31 24 52 53 21 28 47 63 59 77 19 22 30 55 65 190 7 26 6 38 -6 51 -13 15 -13
18 0 32 8 8 13 17 10 19 -2 3 14 17 35 31 32 21 49 45 82 114 22 49 45 98 50
110 25 65 32 357 10 414 -59 152 -150 268 -248 315 -34 16 -67 24 -84 22 -16
-3 -30 0 -32 5 -5 16 -122 10 -156 -8 -23 -11 -36 -13 -45 -6 -9 7 -18 6 -32
-3 -11 -8 -36 -14 -57 -14 -39 0 -64 -23 -203 -182 -121 -139 -187 -190 -282
-220 -36 -11 -50 -11 -75 -1 -18 7 -41 14 -52 15 -43 7 -75 19 -75 27 0 5 -9
9 -20 9 -11 0 -23 7 -26 15 -4 8 -16 15 -28 15 -11 0 -34 7 -50 15 -15 8 -35
15 -43 15 -9 0 -41 16 -73 35 -32 19 -67 35 -78 35 -12 0 -24 5 -27 10 -3 6
-19 10 -34 10 -15 0 -31 4 -37 9 -11 11 -170 58 -199 60 -11 0 -40 2 -65 4
-29 2 -56 -3 -75 -14 -16 -9 -61 -20 -100 -23 -41 -4 -77 -13 -87 -23 -10 -9
-39 -18 -65 -20 -27 -2 -61 -8 -78 -13 -16 -5 -77 -19 -135 -30 -57 -12 -110
-26 -116 -31 -8 -7 -36 6 -90 41 -59 39 -89 66 -121 113 -23 34 -70 87 -105
117 -35 30 -69 62 -76 72 -7 10 -18 18 -23 18 -5 0 -20 9 -32 20 -12 12 -33
23 -47 26 -14 3 -32 8 -40 11 -8 4 -18 6 -22 5 -4 -1 -41 7 -83 18 -92 24
-177 23 -247 -2z m3449 -7921 c6 -12 16 -47 22 -77 6 -30 20 -99 31 -152 15
-74 20 -138 21 -265 0 -106 6 -196 15 -243 27 -135 56 -402 61 -559 5 -163
-13 -309 -44 -360 -15 -23 -15 -23 -33 -5 -28 30 -80 189 -96 293 -8 53 -25
150 -39 216 -32 158 -32 248 1 372 23 88 25 108 18 198 -4 55 -7 109 -7 120
-1 42 12 166 18 175 4 6 1 53 -6 106 -9 75 -9 108 0 150 14 59 22 66 38 31z
m-2013 -38 c41 -43 42 -49 20 -194 -14 -99 -7 -413 17 -686 5 -69 9 -129 7
-135 -2 -9 17 -229 31 -349 4 -38 6 -107 5 -152 -3 -57 0 -83 7 -83 8 0 8 -4
0 -14 -15 -17 -23 -120 -12 -149 10 -27 -5 -159 -24 -212 -8 -22 -13 -56 -12
-75 3 -42 -25 -131 -52 -166 -11 -15 -23 -41 -27 -60 -3 -18 -12 -38 -19 -44
-7 -6 -11 -19 -8 -30 3 -10 -6 -45 -20 -77 -14 -32 -30 -98 -37 -148 -6 -49
-16 -95 -21 -102 -6 -6 -9 -33 -8 -60 3 -53 -8 -113 -20 -113 -5 0 -11 25 -15
55 -3 31 -15 72 -26 92 -17 33 -19 49 -14 133 5 70 3 103 -6 120 -7 13 -14 51
-15 85 -3 59 -8 77 -46 145 -10 19 -19 45 -19 58 0 27 -30 87 -75 153 -33 48
-38 69 -51 204 -3 39 -11 78 -16 89 -6 10 -10 95 -10 190 -1 219 2 280 17 337
8 30 12 124 11 280 -2 170 2 246 11 279 15 50 16 209 1 227 -5 7 -5 14 1 17 6
4 8 19 6 34 -9 57 -13 162 -6 162 4 0 7 25 8 56 1 30 7 62 13 70 7 8 9 14 5
14 -15 0 19 31 49 44 70 31 126 43 217 44 l96 1 37 -40z m1202 -1816 l57 -117
2 -106 c1 -58 7 -125 13 -150 23 -98 31 -160 38 -281 5 -103 3 -137 -11 -185
-9 -32 -18 -74 -20 -94 -2 -19 -11 -88 -19 -153 -9 -65 -16 -136 -16 -158 0
-58 -68 -402 -101 -515 -10 -31 -10 -31 -92 -36 -57 -4 -95 -12 -122 -27 -49
-26 -62 -26 -102 -2 -58 36 -68 75 -66 253 2 119 6 165 18 187 10 20 15 58 15
113 0 83 46 304 69 332 12 15 37 139 45 225 3 35 18 100 32 145 14 44 27 88
29 96 2 8 4 17 5 20 1 3 2 8 2 11 -1 4 6 42 14 85 8 44 17 88 18 99 2 11 9 34
16 50 6 17 17 62 22 100 6 39 15 76 21 83 8 10 7 16 -4 22 -11 8 -10 12 9 26
15 11 22 23 19 35 -3 11 -1 22 4 25 5 3 7 9 4 14 -6 10 26 31 37 24 3 -2 32
-57 64 -121z m-126 57 c0 -5 -5 -10 -11 -10 -5 0 -7 5 -4 10 3 6 8 10 11 10 2
0 4 -4 4 -10z"/>
</g>
</svg>
