<?xml version="1.0" encoding="UTF-8" standalone="no"?>
<svg
   xmlns:dc="http://purl.org/dc/elements/1.1/"
   xmlns:cc="http://creativecommons.org/ns#"
   xmlns:rdf="http://www.w3.org/1999/02/22-rdf-syntax-ns#"
   xmlns:svg="http://www.w3.org/2000/svg"
   xmlns="http://www.w3.org/2000/svg"
   xmlns:sodipodi="http://sodipodi.sourceforge.net/DTD/sodipodi-0.dtd"
   xmlns:inkscape="http://www.inkscape.org/namespaces/inkscape"
   version="1.0"
   width="1280.000000pt"
   height="720.000000pt"
   viewBox="0 0 1280.000000 720.000000"
   preserveAspectRatio="xMidYMid meet"
   id="svg8"
   sodipodi:docname="depredador.svg"
   inkscape:version="0.92.4 (5da689c313, 2019-01-14)">
  <defs
     id="defs12" />
  <sodipodi:namedview
     pagecolor="#ffffff"
     bordercolor="#666666"
     borderopacity="1"
     objecttolerance="10"
     gridtolerance="10"
     guidetolerance="10"
     inkscape:pageopacity="1"
     inkscape:pageshadow="2"
     inkscape:window-width="1920"
     inkscape:window-height="1015"
     id="namedview10"
     showgrid="false"
     inkscape:zoom="0.64302523"
     inkscape:cx="789.20588"
     inkscape:cy="468.60738"
     inkscape:window-x="0"
     inkscape:window-y="0"
     inkscape:window-maximized="1"
     inkscape:current-layer="g6" />
  <metadata
     id="metadata2">
Created by potrace 1.15, written by Peter Selinger 2001-2017
<rdf:RDF>
  <cc:Work
     rdf:about="">
    <dc:format>image/svg+xml</dc:format>
    <dc:type
       rdf:resource="http://purl.org/dc/dcmitype/StillImage" />
    <dc:title></dc:title>
  </cc:Work>
</rdf:RDF>
</metadata>
  <g
     transform="translate(0.000000,720.000000) scale(0.100000,-0.100000)"
     fill="#ffffff"
     stroke="none"
     id="g6">
    <path
       d="M1710 7184 c-41 -18 -84 -56 -112 -101 -12 -20 -28 -33 -40 -33 -56 0 -268 -58 -388 -106 l-135 -54 -45 23 c-65 35 -145 61 -164 54 -24 -9 -54 -65 -67 -123 -12 -52 -12 -52 -93 -95 -145 -75 -238 -153 -266 -218 l-12 -30 -117 61 c-66 34 -125 58 -136 56 -15 -3 -10 -7 20 -17 31 -11 205 -102 224 -118 27 -22 -146 16 -278 61 -78 27 -103 28 -54 3 33 -17 230 -75 285 -84 52 -8 51 -33 0 -33 -27 0 -51 -9 -78 -29 -62 -46 -130 -110 -118 -111 6 0 37 23 70 51 65 57 115 83 145 74 34 -11 21 -32 -49 -76 -83 -55 -210 -178 -247 -242 -43 -74 -23 -66 29 12 51 76 113 136 212 206 73 50 74 51 74 30 0 -8 -12 -21 -28 -29 -65 -34 -113 -114 -111 -186 0 -23 1 -23 9 -5 5 11 12 38 15 60 5 30 19 51 53 85 44 41 47 43 50 22 6 -37 -25 -125 -66 -187 -21 -33 -80 -112 -131 -175 -103 -129 -149 -211 -157 -286 l-6 -51 38 -19 c74 -37 79 -54 78 -242 -1 -92 0 -153 2 -137 2 17 7 55 10 85 l7 55 12 -50 c15 -65 38 -108 72 -134 14 -12 34 -38 43 -59 14 -32 50 -74 50 -59 0 2 -12 25 -26 51 l-26 46 30 0 c25 0 33 -8 57 -52 16 -29 30 -47 33 -40 2 7 -6 27 -17 46 -25 40 -25 42 -3 42 9 1 24 3 32 5 13 3 15 -13 15 -104 0 -59 3 -107 8 -107 4 0 7 50 7 110 0 140 16 147 55 25 16 -47 32 -88 38 -92 10 -6 7 8 -29 111 -13 39 -22 71 -21 71 1 1 24 9 50 17 l48 16 28 -42 c15 -22 44 -69 65 -103 21 -35 42 -63 47 -63 6 0 7 6 3 13 -5 6 -34 54 -66 106 -33 51 -58 95 -56 96 2 1 13 7 24 13 31 16 67 -15 104 -87 30 -59 59 -102 60 -87 0 17 -74 147 -96 169 -25 23 -30 37 -14 37 5 0 28 -26 51 -57 23 -32 44 -60 46 -62 1 -2 6 -2 9 2 3 3 -15 33 -40 67 -25 33 -46 62 -46 64 0 7 97 -15 133 -31 l37 -16 -6 -121 c-4 -67 -12 -127 -17 -135 -11 -13 -21 -12 -115 5 -27 5 -32 3 -32 -13 0 -36 96 -136 166 -174 40 -22 41 -23 33 -60 -10 -45 -2 -73 37 -118 l28 -33 -43 -40 c-23 -22 -40 -42 -37 -45 2 -3 24 13 48 35 29 27 48 38 57 33 15 -10 5 -33 -37 -90 -14 -19 -19 -32 -11 -29 12 4 45 45 68 86 6 10 14 10 35 2 27 -10 28 -12 22 -63 -7 -57 7 -47 18 14 6 32 9 35 35 31 15 -2 45 1 66 7 l37 10 -6 -39 c-4 -25 -2 -40 4 -40 5 0 10 17 10 39 0 31 5 42 26 56 14 9 28 14 31 12 3 -3 0 -27 -5 -54 -10 -45 -9 -63 4 -51 3 3 8 31 11 61 5 50 10 59 72 124 44 47 100 127 169 241 57 95 114 177 129 187 24 16 37 17 137 6 252 -26 545 -121 619 -199 53 -57 615 -898 696 -1042 24 -41 57 -95 75 -120 60 -83 154 -254 244 -440 100 -205 317 -712 470 -1095 33 -82 74 -180 91 -217 52 -113 83 -235 78 -300 -5 -55 -7 -59 -72 -120 -37 -34 -83 -85 -101 -113 l-34 -49 -80 -2 c-69 -2 -84 -5 -109 -27 -23 -19 -47 -27 -101 -32 -62 -6 -75 -11 -101 -39 -16 -17 -38 -56 -50 -86 -19 -51 -20 -69 -3 -127 6 -22 3 -23 -44 -23 -58 0 -195 -24 -267 -47 -27 -8 -142 -59 -255 -113 -232 -110 -245 -115 -353 -130 -144 -19 -415 -98 -522 -152 -110 -56 -225 -154 -333 -283 -83 -100 -187 -241 -198 -268 -6 -16 204 -17 3527 -16 l3534 1 -45 20 c-25 11 -215 110 -424 220 -557 295 -618 320 -836 352 -93 14 -352 35 -435 36 -26 0 -19 8 65 62 52 34 129 79 170 101 41 22 93 56 115 76 68 60 163 172 194 230 28 55 102 269 140 407 10 39 27 86 36 105 49 96 211 379 236 413 16 22 29 45 29 52 0 20 170 313 221 381 27 36 84 117 125 181 42 65 98 144 124 177 26 33 54 74 63 91 9 17 64 101 122 187 96 142 108 156 124 145 68 -48 202 -192 241 -258 98 -169 134 -218 330 -455 80 -96 183 -242 330 -468 151 -232 231 -345 271 -384 42 -40 72 -83 109 -156 28 -55 62 -114 75 -131 13 -17 41 -67 62 -111 l38 -80 -1 -160 c0 -101 -5 -168 -12 -182 -8 -14 -35 -29 -77 -43 -77 -26 -118 -57 -147 -114 -63 -123 -64 -269 -2 -336 l24 -26 -75 -27 c-41 -15 -102 -47 -135 -70 -106 -73 -100 -71 -290 -77 -167 -5 -177 -7 -225 -33 -27 -15 -75 -50 -105 -77 l-55 -49 1963 -1 1962 0 0 478 0 477 -42 -2 c-24 -1 -133 -7 -243 -13 -632 -34 -1256 -82 -1374 -106 -86 -18 -289 -79 -410 -124 -45 -16 -85 -30 -89 -30 -4 0 -7 111 -7 248 -1 233 -2 251 -24 317 -38 112 -80 196 -250 508 -88 162 -163 301 -166 310 -5 12 7 10 61 -10 122 -44 372 -112 486 -133 186 -33 535 -22 755 25 97 20 224 61 302 96 354 160 631 587 631 974 0 116 -14 174 -70 287 -74 150 -153 263 -259 368 -105 104 -175 148 -281 175 -150 39 -350 -37 -312 -119 5 -12 70 -88 143 -167 223 -243 303 -367 330 -512 34 -186 -101 -428 -296 -529 -205 -106 -573 -174 -808 -149 -129 14 -213 39 -327 96 -119 60 -199 121 -316 241 -91 93 -107 115 -166 231 -133 261 -350 791 -371 910 -18 102 -54 226 -129 453 -131 395 -173 472 -353 655 -71 72 -168 162 -215 199 -110 86 -315 227 -373 255 -25 12 -65 39 -89 60 -23 21 -58 46 -75 55 -29 15 -33 15 -33 1 0 -14 -3 -14 -30 0 -16 8 -46 26 -66 40 -20 14 -47 25 -60 25 -13 0 -88 24 -166 54 -470 177 -1025 327 -1558 421 -319 56 -701 84 -1470 105 l-365 11 -25 32 c-70 92 -232 205 -440 308 -251 125 -277 129 -765 138 -367 6 -381 7 -422 29 -31 16 -59 22 -105 22 -57 0 -111 17 -538 171 l-475 172 -70 74 c-77 81 -95 87 -165 57z m5318 -4116 c-98 -545 -131 -696 -167 -772 -32 -68 -63 -187 -111 -426 -20 -100 -93 -379 -146 -557 -24 -81 -25 -83 -119 -169 -107 -99 -225 -190 -298 -229 -69 -38 -144 -33 -210 15 -35 25 -60 34 -99 38 -95 7 -255 -45 -304 -99 -8 -9 -18 -36 -21 -58 -4 -29 -10 -41 -22 -41 -42 0 -331 84 -457 133 -212 83 -299 108 -392 114 -71 5 -82 8 -77 22 41 102 68 189 89 288 14 65 41 167 61 226 l36 109 -2 231 c-2 186 1 242 13 282 9 28 23 75 31 105 18 65 52 343 70 560 l12 155 125 -5 c69 -3 314 -5 545 -5 388 0 432 2 585 24 91 13 210 27 265 30 55 4 110 12 122 19 12 7 122 33 245 58 122 24 224 47 227 49 16 17 16 -7 -1 -97z"
       id="path4" />
  </g>
</svg>
