<?xml version="1.0" standalone="no"?>
<!DOCTYPE svg PUBLIC "-//W3C//DTD SVG 20010904//EN"
 "http://www.w3.org/TR/2001/REC-SVG-20010904/DTD/svg10.dtd">
<svg version="1.0" xmlns="http://www.w3.org/2000/svg"
 width="1174.000000pt" height="1280.000000pt" viewBox="0 0 1174.000000 1280.000000"
 preserveAspectRatio="xMidYMid meet">
<metadata>
Created by potrace 1.15, written by Peter Selinger 2001-2017
</metadata>
<rect width="10000%" height="10000%" fill="#ffffff"/>
<g transform="translate(0.000000,1280.000000) scale(0.100000,-0.100000)"
fill="#000000" stroke="none">
<path d="M9038 12713 c-106 -104 -272 -300 -463 -548 -314 -408 -527 -668
-834 -1020 -613 -702 -1201 -1288 -1435 -1429 -84 -51 -300 -98 -600 -131
-161 -18 -277 -52 -406 -122 -276 -148 -594 -405 -1230 -994 -258 -239 -370
-332 -504 -421 -239 -157 -409 -228 -935 -389 -551 -168 -862 -298 -1117 -465
-146 -96 -352 -292 -389 -371 -50 -104 40 -262 229 -406 210 -160 478 -304
981 -527 176 -78 332 -148 346 -156 l27 -13 -100 -293 c-149 -437 -217 -724
-238 -998 -11 -143 -32 -237 -89 -400 -40 -112 -61 -156 -267 -560 -151 -297
-304 -701 -455 -1205 -114 -381 -216 -818 -234 -1010 -14 -143 -90 -252 -384
-546 -343 -342 -693 -619 -876 -692 -37 -15 381 -16 5084 -16 l5124 -1 -7 122
c-16 297 -91 658 -151 722 -44 47 -50 92 -49 346 1 259 20 445 75 726 54 277
102 422 185 558 94 156 135 318 135 546 1 353 -82 645 -319 1128 -107 216
-144 309 -182 457 -64 250 -85 546 -77 1070 7 414 25 624 73 840 26 115 43
164 104 290 102 212 191 483 275 843 83 355 168 587 327 894 91 175 178 316
283 456 89 120 235 271 310 322 237 159 376 362 451 659 63 247 38 466 -80
687 -145 273 -290 407 -439 407 -66 0 -89 -9 -201 -77 -117 -71 -201 -68 -393
12 -212 89 -214 88 -212 -96 1 -135 -9 -183 -51 -240 -44 -59 -122 -84 -163
-51 -39 30 -43 97 -17 305 36 285 22 576 -37 784 -45 158 -191 379 -433 655
-209 238 -450 435 -532 435 -12 0 -57 -36 -110 -87z"/>
</g>
</svg>
