<?xml version="1.0" standalone="no"?>
<!DOCTYPE svg PUBLIC "-//W3C//DTD SVG 20010904//EN"
 "http://www.w3.org/TR/2001/REC-SVG-20010904/DTD/svg10.dtd">
<svg version="1.0" xmlns="http://www.w3.org/2000/svg"
 width="1280.000000pt" height="1280.000000pt" viewBox="0 0 1280.000000 1280.000000"
 preserveAspectRatio="xMidYMid meet">
<metadata>
Created by potrace 1.15, written by Peter Selinger 2001-2017
</metadata>
<rect width="10000%" height="10000%" fill="#ffffff"/>
<g transform="translate(0.000000,1280.000000) scale(0.100000,-0.100000)"
fill="#000000" stroke="none">
<path d="M4685 11730 c-44 -4 -98 -12 -120 -18 -22 -5 -83 -11 -135 -12 -52
-1 -102 -6 -113 -11 -13 -8 -48 -4 -122 11 -80 17 -127 21 -212 18 -133 -4
-177 -23 -267 -112 -55 -55 -65 -72 -102 -171 -79 -211 -104 -328 -108 -495
-2 -111 -27 -334 -42 -383 -3 -10 -17 -23 -31 -28 -26 -10 -73 -5 -379 42 -72
11 -173 22 -225 25 -86 5 -96 4 -113 -14 -58 -65 25 -225 179 -342 81 -62 137
-90 310 -156 53 -21 123 -21 161 -1 l31 16 6 -129 c4 -89 10 -138 22 -159 9
-18 13 -36 10 -40 -3 -5 0 -11 7 -13 6 -2 15 -29 19 -59 11 -85 18 -114 44
-178 24 -62 80 -141 100 -141 29 0 47 -31 70 -115 13 -50 33 -117 45 -149 27
-76 22 -97 -44 -166 -36 -38 -58 -72 -70 -108 -34 -105 -96 -201 -188 -291
-70 -68 -95 -100 -124 -160 -31 -65 -54 -94 -155 -193 -111 -108 -128 -121
-242 -179 -203 -103 -243 -133 -326 -244 -41 -53 -91 -129 -114 -169 -22 -39
-65 -107 -95 -151 -170 -244 -243 -362 -270 -439 -70 -198 -114 -470 -132
-826 -9 -187 -5 -519 7 -550 21 -57 29 -165 21 -300 -4 -80 -11 -200 -14 -267
l-6 -122 51 -146 c66 -185 127 -317 195 -419 29 -45 95 -161 146 -259 136
-260 143 -267 340 -344 95 -37 134 -58 167 -89 l43 -41 0 -79 c0 -47 -13 -140
-30 -229 -17 -82 -30 -151 -30 -152 0 -2 7 -3 16 -3 18 0 17 -7 -11 -105 -9
-33 -21 -82 -26 -110 -10 -61 -28 -126 -39 -140 -4 -5 -10 -35 -13 -65 -3 -30
-12 -86 -22 -125 -14 -61 -16 -114 -13 -403 3 -182 8 -335 11 -338 12 -12 170
-4 582 31 226 19 727 62 1115 95 388 33 919 78 1180 100 261 22 547 47 635 55
88 8 302 26 475 41 173 15 319 30 323 34 5 4 4 98 -2 209 -6 111 -11 277 -11
369 -1 92 -5 199 -10 237 -6 39 -15 111 -20 160 -6 50 -16 131 -24 180 -34
213 -55 365 -61 435 -4 42 -10 82 -15 90 -11 17 15 56 82 126 l49 51 -19 51
c-21 54 -20 62 10 62 10 0 39 19 63 41 40 37 45 46 45 85 0 24 -7 64 -16 90
-8 25 -14 47 -12 49 2 1 55 13 118 25 115 22 195 22 339 1 l44 -6 53 -138 c58
-153 149 -331 199 -392 18 -22 62 -70 97 -108 40 -41 85 -104 118 -162 28 -52
54 -95 57 -95 2 0 19 11 36 24 41 30 118 69 182 92 31 11 71 38 105 70 65 61
113 87 203 110 88 22 101 32 88 67 -6 15 -29 50 -51 79 -23 28 -50 69 -61 90
-11 21 -53 89 -94 152 -41 62 -75 116 -75 120 0 11 93 7 180 -9 47 -8 126 -21
175 -29 50 -8 133 -24 185 -36 97 -22 186 -33 390 -49 63 -6 160 -17 215 -25
55 -9 120 -16 145 -16 52 0 124 30 138 57 18 36 22 124 6 189 -9 39 -15 117
-15 197 -1 146 -3 184 -14 209 -9 23 2 38 28 38 72 0 192 83 199 138 2 20 8 7
22 -46 10 -40 21 -74 25 -76 3 -2 49 9 101 24 52 16 114 33 138 40 37 9 42 14
42 39 0 26 3 29 49 35 65 9 113 42 129 90 11 34 10 44 -8 81 -25 52 -25 63 3
93 18 19 22 35 22 86 0 54 -4 68 -30 102 -26 34 -29 45 -27 99 2 41 -3 69 -14
90 -10 17 -25 45 -35 64 -10 19 -24 38 -31 42 -10 6 -9 15 5 38 19 33 22 98 6
133 -5 13 -38 38 -75 57 -46 24 -64 39 -64 53 0 18 -4 20 -44 14 l-44 -7 -7
86 c-4 48 -4 90 1 94 5 4 108 42 229 84 121 41 227 78 236 82 12 5 21 -8 38
-55 12 -33 26 -60 30 -60 5 0 29 18 55 41 l46 41 -20 33 c-11 18 -20 35 -20
38 0 3 36 17 79 32 44 14 99 41 123 59 24 18 68 39 98 48 30 9 300 91 600 183
300 92 634 194 743 228 l197 60 0 41 c0 23 -3 65 -7 94 -5 43 -9 52 -22 47
-21 -8 -516 -164 -786 -248 -115 -36 -309 -97 -430 -135 -204 -66 -237 -73
-468 -107 -136 -20 -251 -34 -256 -31 -5 3 -12 27 -16 53 -3 27 -17 64 -30 83
-13 19 -56 129 -95 243 -40 114 -76 204 -80 200 -7 -7 -37 -73 -201 -437 -32
-72 -69 -150 -81 -175 l-23 -46 -85 -13 c-47 -7 -191 -28 -320 -46 l-235 -32
-5 -34 -5 -35 -75 -12 c-209 -32 -535 -120 -782 -212 -33 -12 -81 -21 -113
-21 -32 0 -85 -10 -127 -25 -40 -13 -109 -32 -152 -41 -44 -8 -108 -26 -143
-40 l-64 -23 -20 47 c-11 26 -28 82 -36 125 -16 77 -17 80 -62 108 -50 31
-102 37 -120 15 -7 -8 -44 -22 -84 -31 l-71 -16 -69 76 c-38 42 -130 122 -204
178 -74 56 -151 115 -171 130 -28 22 -62 77 -150 245 -229 437 -430 841 -508
1020 l-79 184 -77 67 c-67 59 -88 71 -165 95 -48 15 -106 34 -128 41 -22 7
-60 18 -85 25 -25 6 -72 21 -105 32 -33 11 -78 24 -100 28 -22 5 -62 15 -90
23 -234 72 -401 118 -455 127 -65 10 -94 24 -163 78 -34 26 -67 52 -75 57 -20
16 10 102 52 152 42 49 76 115 92 178 43 172 62 236 77 258 9 15 17 30 17 36
0 5 6 11 14 14 19 7 36 69 36 126 0 34 10 62 45 121 57 97 87 200 88 305 1 80
1 80 -47 154 -52 79 -51 91 9 91 46 0 161 29 245 61 41 16 81 29 88 29 8 0 66
16 130 37 128 40 187 80 180 125 -3 20 -12 24 -83 35 -95 15 -428 10 -522 -8
-53 -11 -65 -10 -86 4 -15 9 -28 30 -32 49 -4 18 -13 47 -21 64 -8 18 -21 66
-29 109 -8 42 -28 102 -45 133 -16 30 -30 65 -30 76 0 37 -49 268 -74 351 -30
97 -124 280 -164 318 -33 32 -187 88 -236 86 -17 -1 -67 -5 -111 -9z m5920
-4764 c41 -60 72 -113 69 -117 -3 -5 -16 -9 -30 -9 -14 0 -73 -20 -131 -45
-59 -24 -109 -43 -111 -41 -2 3 19 71 48 153 28 81 53 154 56 161 8 24 22 9
99 -102z m-2706 -653 c5 -21 12 -68 15 -104 5 -53 3 -68 -8 -72 -8 -3 -19 0
-24 6 -11 14 -93 180 -89 182 77 33 95 31 106 -12z m1861 -328 c0 -16 -7 -28
-17 -31 -35 -10 -103 -47 -103 -55 0 -5 -26 -22 -57 -38 -32 -16 -79 -51 -104
-78 -66 -69 -78 -74 -139 -63 -28 5 -60 14 -71 20 -14 8 -24 8 -33 1 -7 -6
-16 -8 -19 -5 -3 3 -81 6 -173 5 -93 -1 -166 1 -163 3 3 3 68 25 144 50 77 24
247 78 377 120 130 42 252 76 270 77 18 0 42 4 53 9 31 13 35 12 35 -15z"/>
</g>
</svg>
