<?xml version="1.0" standalone="no"?>
<!DOCTYPE svg PUBLIC "-//W3C//DTD SVG 20010904//EN"
 "http://www.w3.org/TR/2001/REC-SVG-20010904/DTD/svg10.dtd">
<svg version="1.0" xmlns="http://www.w3.org/2000/svg"
 width="1280.000000pt" height="1145.000000pt" viewBox="0 0 1280.000000 1145.000000"
 preserveAspectRatio="xMidYMid meet">
<metadata>
Created by potrace 1.15, written by Peter Selinger 2001-2017
</metadata>
<rect width="10000%" height="10000%" fill="#ffffff"/>
<g transform="translate(0.000000,1145.000000) scale(0.100000,-0.100000)"
fill="#000000" stroke="none">
<path d="M3855 11195 c-188 -15 -202 -17 -405 -61 -219 -47 -330 -82 -530
-167 -318 -136 -442 -200 -585 -301 -243 -172 -510 -444 -658 -671 -106 -163
-153 -260 -196 -405 -80 -265 -113 -514 -132 -980 -18 -439 -6 -622 56 -870
29 -115 36 -164 45 -334 6 -117 7 -203 2 -208 -5 -5 -40 -12 -78 -15 -63 -5
-80 -2 -176 31 -182 63 -266 62 -342 -5 -66 -58 -79 -109 -74 -297 l3 -147 41
-85 c23 -47 84 -149 137 -228 173 -258 228 -395 302 -755 19 -93 35 -170 35
-172 0 -3 14 -20 30 -39 27 -30 35 -55 61 -183 32 -153 46 -189 119 -288 62
-83 131 -142 191 -159 29 -9 58 -16 65 -16 20 0 25 -13 145 -371 61 -184 127
-371 145 -417 41 -99 108 -235 135 -271 10 -14 27 -51 38 -82 l19 -57 -66 -25
c-37 -14 -96 -33 -132 -42 -86 -22 -89 -24 -205 -127 -162 -145 -293 -279
-335 -343 -22 -33 -46 -70 -54 -81 -10 -14 -46 -31 -103 -48 -198 -61 -246
-92 -351 -223 -138 -174 -185 -277 -197 -433 -8 -107 -43 -241 -83 -314 -15
-27 -55 -74 -90 -105 -75 -67 -163 -188 -187 -257 -12 -35 -15 -65 -10 -104 8
-68 -6 -89 -80 -115 -57 -21 -115 -76 -115 -109 0 -42 37 -132 94 -227 31 -52
59 -108 62 -126 3 -18 -5 -113 -19 -212 -20 -143 -23 -188 -15 -218 6 -22 8
-81 5 -143 -5 -98 -16 -143 -60 -265 -8 -22 -18 -59 -22 -82 l-7 -43 6082 0
6082 0 -7 88 c-26 320 -111 574 -260 772 -36 47 -108 146 -161 220 -54 74
-113 153 -133 175 -20 22 -79 96 -131 164 -63 83 -118 144 -165 180 -38 31
-117 101 -175 157 -61 58 -157 135 -229 184 -135 91 -136 93 -315 355 -43 63
-97 136 -118 160 -41 46 -208 162 -272 189 -20 8 -62 33 -93 56 -84 60 -217
100 -336 100 -69 0 -103 5 -134 20 -83 37 -198 63 -318 71 -274 19 -376 21
-469 10 -52 -7 -111 -9 -131 -5 -19 3 -106 51 -193 106 -86 55 -199 125 -251
155 -97 56 -176 109 -339 226 -113 83 -127 89 -226 96 -89 7 -88 6 -105 95
-13 72 -36 99 -116 136 -87 41 -132 88 -140 148 -11 73 -66 165 -118 195 -32
19 -52 42 -76 87 -26 48 -42 65 -75 82 -38 18 -48 19 -98 9 -31 -7 -62 -19
-68 -27 -20 -23 -44 -16 -85 27 -42 43 -89 70 -190 109 -72 28 -91 43 -116 92
-18 35 -18 48 -9 200 6 90 15 206 20 258 17 161 20 165 70 96 42 -58 95 -81
178 -79 54 1 71 6 116 36 78 52 149 125 175 182 13 28 43 88 66 135 28 58 52
130 74 225 18 77 46 178 62 225 41 121 126 509 134 610 5 66 16 107 47 185 69
169 78 205 88 331 11 128 -1 409 -20 473 -10 38 -69 105 -110 126 -68 35 -185
25 -270 -22 -93 -51 -222 -87 -242 -67 -3 3 1 26 9 52 20 63 30 1192 13 1477
-27 458 -62 735 -107 855 -98 263 -355 610 -598 809 -414 338 -1102 622 -1597
661 -171 13 -849 10 -1043 -5z"/>
</g>
</svg>
