<?xml version="1.0" standalone="no"?>
<!DOCTYPE svg PUBLIC "-//W3C//DTD SVG 20010904//EN"
 "http://www.w3.org/TR/2001/REC-SVG-20010904/DTD/svg10.dtd">
<svg version="1.0" xmlns="http://www.w3.org/2000/svg"
 width="1280.000000pt" height="1266.000000pt" viewBox="0 0 1280.000000 1266.000000"
 preserveAspectRatio="xMidYMid meet">
<metadata>
Created by potrace 1.15, written by Peter Selinger 2001-2017
</metadata>
<rect width="10000%" height="10000%" fill="#ffffff"/>
<g transform="translate(0.000000,1266.000000) scale(0.100000,-0.100000)"
fill="#000000" stroke="none">
<path d="M6683 12611 c-482 -256 -750 -701 -852 -1416 -25 -176 -38 -343 -51
-660 -6 -137 -13 -266 -16 -285 -4 -19 -49 -215 -101 -435 -84 -357 -97 -403
-121 -426 -15 -14 -243 -220 -507 -457 l-480 -431 -77 -308 c-43 -169 -115
-454 -161 -633 l-82 -325 -233 -348 -233 -348 -13 -92 c-8 -51 -22 -166 -32
-256 l-17 -165 -1000 -1185 c-550 -652 -1010 -1197 -1023 -1211 l-24 -24 -76
52 c-42 29 -78 51 -80 49 -2 -1 -13 -61 -25 -132 -12 -72 -25 -134 -29 -138
-4 -4 -56 -17 -116 -28 -147 -26 -224 -46 -318 -82 -70 -26 -88 -39 -149 -103
-46 -48 -125 -111 -231 -184 -210 -143 -256 -186 -256 -236 0 -20 10 -26 68
-44 93 -29 222 -46 263 -34 19 5 39 20 45 33 8 16 70 50 214 117 112 52 204
93 205 92 1 -2 -75 -107 -169 -235 -168 -227 -172 -231 -201 -225 -16 4 -82 7
-145 7 -134 -1 -221 -23 -310 -79 -30 -18 -83 -51 -118 -72 -165 -100 -271
-252 -219 -316 8 -10 80 -29 202 -54 l190 -38 399 82 399 82 71 64 c412 368
551 487 554 473 22 -112 339 -1488 343 -1490 4 -2 887 837 2384 2265 159 152
292 275 293 273 2 -2 -10 -55 -28 -117 -17 -62 -200 -720 -407 -1463 -206
-742 -423 -1523 -483 -1735 -59 -212 -106 -386 -105 -387 2 -3 3791 15 4812
23 447 4 811 10 808 13 -2 4 -241 902 -530 1996 -486 1835 -530 1994 -562
2043 -40 59 -78 92 -142 120 l-43 20 121 91 c66 51 122 100 125 109 3 9 39
210 81 446 41 236 77 431 79 433 5 5 10 -18 116 -487 l92 -405 331 -465 c242
-341 522 -756 1045 -1555 l713 -1090 227 -41 c125 -23 228 -41 229 -40 2 2 35
144 73 317 87 388 189 801 199 812 4 4 11 -20 14 -55 3 -35 26 -157 51 -273
25 -115 50 -241 55 -278 15 -104 87 -212 257 -383 96 -98 104 -103 175 -124
262 -79 429 -101 496 -66 35 18 43 33 43 84 0 31 -13 53 -81 137 -214 263
-384 576 -453 835 l-25 91 107 -102 c185 -175 324 -266 425 -276 47 -5 56 -2
84 21 17 14 36 39 41 56 10 27 8 31 -22 50 -118 72 -245 288 -369 625 -13 37
-37 55 -368 273 l-354 233 -13 124 -12 124 -609 813 -608 813 -160 370 c-89
204 -307 708 -486 1120 -179 413 -447 1031 -596 1375 l-271 625 -415 415 -415
415 0 332 0 331 -171 369 -172 368 57 305 57 306 -145 399 c-79 220 -147 407
-151 415 -8 18 -64 62 -219 170 -116 81 -121 83 -206 96 -146 22 -259 72 -331
148 l-34 36 -92 -49z"/>
</g>
</svg>
