<?xml version="1.0" standalone="no"?>
<!DOCTYPE svg PUBLIC "-//W3C//DTD SVG 20010904//EN"
 "http://www.w3.org/TR/2001/REC-SVG-20010904/DTD/svg10.dtd">
<svg version="1.0" xmlns="http://www.w3.org/2000/svg"
 width="911.000000pt" height="1280.000000pt" viewBox="0 0 911.000000 1280.000000"
 preserveAspectRatio="xMidYMid meet">
<metadata>
Created by potrace 1.15, written by Peter Selinger 2001-2017
</metadata>
<rect width="10000%" height="10000%" fill="#ffffff"/>
<g transform="translate(0.000000,1280.000000) scale(0.100000,-0.100000)"
fill="#000000" stroke="none">
<path d="M4040 12789 c-111 -10 -247 -31 -380 -60 -459 -100 -852 -295 -1288
-641 -153 -120 -489 -475 -709 -746 -142 -175 -139 -172 -463 -547 -128 -148
-277 -315 -329 -370 -155 -162 -231 -269 -276 -390 -44 -117 -81 -388 -62
-450 9 -26 224 -164 291 -186 28 -9 172 -45 321 -78 148 -34 273 -65 277 -69
5 -5 28 -41 53 -81 l45 -73 0 -184 0 -183 -92 -48 c-119 -61 -123 -69 -122
-228 0 -97 5 -140 27 -222 62 -237 268 -786 374 -997 83 -165 287 -442 364
-493 22 -14 39 -30 39 -36 0 -18 199 -624 241 -736 22 -57 51 -126 65 -153 14
-28 32 -80 40 -117 16 -78 20 -376 4 -386 -34 -21 -200 -225 -329 -404 -201
-279 -228 -305 -476 -456 -44 -27 -103 -71 -130 -97 -45 -41 -78 -58 -275
-137 -197 -80 -248 -96 -414 -132 -235 -50 -310 -74 -499 -156 -188 -82 -214
-97 -237 -142 -63 -124 -80 -271 -90 -761 -7 -377 -6 -433 12 -612 18 -178 19
-201 5 -247 l-15 -52 51 -142 50 -142 3 -165 c9 -612 13 -711 34 -875 28 -225
56 -387 74 -429 25 -59 181 -142 292 -156 44 -6 94 -22 152 -50 85 -41 87 -41
165 -34 77 7 81 6 151 -30 66 -34 80 -37 206 -46 405 -29 2539 -49 5255 -50
l1430 0 49 81 c26 44 58 84 70 88 12 5 40 24 63 42 23 19 61 47 83 62 23 15
48 43 55 61 l14 33 118 7 c65 4 192 11 283 16 226 12 224 12 269 79 20 31 47
79 59 107 62 149 109 438 91 559 -9 55 -8 72 5 100 24 49 37 266 35 545 -2
190 1 252 16 325 21 110 26 398 8 530 -7 50 -18 154 -26 233 l-14 143 -59 60
c-59 60 -61 67 -20 82 6 2 10 28 10 58 1 46 -4 62 -26 92 -41 52 -176 144
-255 171 -37 13 -212 73 -388 133 -404 139 -596 210 -749 280 -67 30 -173 75
-236 98 -92 35 -120 50 -140 77 -32 42 -96 105 -198 196 -92 82 -159 174 -364
501 -147 232 -226 337 -365 481 l-92 97 9 204 c18 372 42 514 130 781 87 261
103 288 296 506 163 183 186 234 280 642 73 314 89 373 134 520 52 169 63 236
55 343 l-7 88 -85 67 c-47 37 -95 74 -106 83 -19 15 -19 19 -6 185 17 216 17
499 1 584 -18 91 -70 256 -98 313 -14 26 -27 66 -30 90 -5 34 11 181 40 364 2
15 -18 48 -66 107 l-69 84 3 107 3 107 145 57 c183 72 295 126 390 189 226
150 339 300 400 534 16 62 30 120 30 129 0 31 -117 173 -186 226 -93 70 -311
186 -414 222 -92 31 -149 54 -700 288 -741 315 -1154 482 -1330 537 -293 91
-619 124 -950 95z"/>
</g>
</svg>
