<?xml version="1.0" standalone="no"?>
<!DOCTYPE svg PUBLIC "-//W3C//DTD SVG 20010904//EN"
 "http://www.w3.org/TR/2001/REC-SVG-20010904/DTD/svg10.dtd">
<svg version="1.0" xmlns="http://www.w3.org/2000/svg"
 width="640.000000pt" height="1280.000000pt" viewBox="0 0 640.000000 1280.000000"
 preserveAspectRatio="xMidYMid meet">
<metadata>
Created by potrace 1.15, written by Peter Selinger 2001-2017
</metadata>
<rect width="10000%" height="10000%" fill="#ffffff"/>
<g transform="translate(0.000000,1280.000000) scale(0.100000,-0.100000)"
fill="#000000" stroke="none">
<path d="M2719 12747 c-112 -94 -255 -279 -324 -421 -46 -96 -98 -265 -110
-358 -4 -30 -10 -59 -13 -65 -4 -5 -47 -22 -97 -37 -96 -30 -237 -92 -270
-120 -19 -17 -17 -17 40 -11 162 17 243 24 278 25 l37 0 0 -67 c0 -90 16 -255
41 -431 l21 -143 -85 -89 c-88 -92 -144 -183 -133 -218 4 -10 27 -33 51 -51
25 -18 45 -35 45 -39 0 -4 -36 -24 -81 -46 -87 -42 -209 -118 -276 -174 -37
-29 -43 -40 -43 -71 0 -24 11 -54 30 -85 l30 -47 -96 -204 -97 -205 -41 -11
c-86 -22 -183 -51 -246 -74 -243 -87 -627 -301 -651 -362 -33 -82 -47 -189
-59 -446 -16 -343 -9 -314 -107 -426 -121 -137 -125 -146 -134 -326 -4 -82
-15 -222 -23 -310 -9 -88 -16 -207 -16 -265 l0 -106 -61 -54 c-34 -29 -74 -73
-89 -96 l-26 -42 38 -124 c82 -258 101 -315 133 -384 37 -81 69 -111 128 -118
344 -41 383 -39 497 17 90 45 628 348 796 448 l31 19 37 -103 37 -103 -23 -49
c-21 -45 -23 -66 -24 -220 -2 -183 -13 -243 -111 -625 -123 -482 -202 -757
-445 -1550 -32 -107 -72 -238 -88 -290 -32 -104 -124 -404 -224 -727 -126
-406 -226 -776 -226 -833 0 -14 14 -63 30 -110 16 -47 30 -86 30 -87 0 -1 36
-13 80 -28 44 -15 80 -32 80 -39 0 -30 -43 -248 -66 -335 -42 -155 -133 -418
-213 -609 l-30 -72 18 -142 19 -142 -68 -118 c-90 -157 -125 -252 -125 -343 0
-63 6 -85 64 -225 83 -203 163 -366 200 -411 36 -43 87 -59 189 -59 110 0 153
20 259 123 109 106 182 207 189 263 5 33 -1 50 -37 109 -28 47 -44 85 -47 115
-5 57 11 165 38 252 l20 65 47 -12 c48 -12 180 -20 280 -17 l52 2 35 113 c86
276 192 689 278 1079 l43 198 30 -1 c17 0 129 -10 249 -22 213 -22 220 -22
236 -4 34 36 94 275 142 561 20 122 24 135 30 100 8 -48 45 -283 60 -384 6
-41 12 -80 13 -86 2 -6 27 -14 57 -17 29 -3 109 -13 177 -21 68 -9 174 -18
237 -22 63 -4 114 -7 114 -8 0 -1 5 -28 10 -61 37 -223 60 -504 60 -730 0
-283 17 -661 30 -685 22 -42 87 -64 203 -68 89 -4 107 -7 103 -19 -19 -49 -38
-216 -34 -293 11 -192 102 -279 329 -315 91 -14 191 35 250 122 18 26 33 49
35 51 4 6 398 -163 694 -297 149 -67 265 -101 345 -101 107 0 301 43 386 85
118 60 96 80 -206 184 -329 114 -366 141 -471 343 -90 173 -201 268 -425 361
l-36 15 -12 228 c-26 500 -32 593 -47 703 -22 164 -84 397 -144 536 -11 26
-20 50 -20 54 0 4 31 30 69 57 39 27 73 56 77 64 26 60 11 547 -44 1343 l-7
107 130 -7 c182 -11 430 -8 494 6 77 16 136 49 277 152 140 103 167 131 202
209 50 114 73 234 112 595 28 268 32 322 29 440 -7 225 -30 248 -305 304 -83
17 -161 31 -173 31 -19 0 -22 4 -17 23 3 12 6 32 6 45 0 15 6 22 19 22 32 0
60 48 97 169 113 368 160 495 329 901 341 816 342 819 348 1310 5 373 3 388
-58 434 -18 14 -51 33 -74 42 -82 33 -100 76 -161 398 -18 94 -39 180 -47 193
-9 14 -44 33 -91 50 -94 35 -131 70 -196 188 -81 148 -332 390 -470 456 -41
19 -126 41 -261 68 -272 54 -528 101 -553 101 -11 0 -23 4 -26 8 -3 5 71 64
165 132 93 68 169 126 169 128 0 2 -40 54 -88 116 -49 61 -107 136 -130 167
-47 65 -83 83 -182 93 -126 13 -120 10 -119 74 l0 57 95 80 c53 44 118 104
145 134 75 80 71 88 -81 188 -69 46 -133 89 -142 95 -11 8 -19 34 -23 69 l-7
57 70 56 69 56 92 0 c97 0 143 13 174 48 18 19 18 21 -3 40 -26 24 -152 66
-338 113 l-133 34 -40 130 c-90 289 -145 439 -208 563 -48 95 -74 124 -104
117 -12 -3 -85 -18 -162 -34 -77 -16 -164 -39 -193 -50 -29 -12 -64 -21 -77
-21 -14 0 -64 21 -112 46 -70 37 -242 94 -282 94 -4 0 -36 -24 -72 -53z m2316
-4722 l86 -232 -117 -199 c-245 -419 -365 -654 -388 -766 -8 -34 -41 -44 -90
-28 -35 11 -36 13 -36 65 0 110 75 585 121 770 24 93 212 756 236 830 l16 50
44 -130 c23 -71 81 -233 128 -360z m-602 -1671 c-37 -68 -38 -68 -44 -39 -15
66 -11 75 34 94 23 10 43 18 44 17 2 -1 -14 -34 -34 -72z"/>
</g>
</svg>
